# 3ds Max Wavefront OBJ Exporter v0.97b - (c)2007 guruware
# File Created: 19.04.2016 15:27:34

#
# object Hand
#

v  -0.0004 -0.0649 0.3252
v  0.0171 0.1666 0.2692
v  -0.0555 0.1232 0.2340
v  -0.1695 -0.0654 0.2854
v  -0.1826 -0.1158 0.2717
v  -0.1130 -0.1982 0.2717
v  -0.0004 -0.2296 0.2717
v  0.1122 -0.1982 0.2717
v  0.1818 -0.1158 0.2717
v  0.1695 0.0336 0.2287
v  0.1358 0.1232 0.2340
v  -0.1646 0.2257 0.1068
v  0.0171 0.2847 0.1068
v  -0.2302 -0.0363 0.1567
v  -0.2220 -0.1198 0.1380
v  -0.0753 -0.3117 0.1295
v  -0.0046 -0.3209 0.1478
v  0.1666 -0.2806 0.1315
v  0.2944 -0.1473 0.1315
v  0.2657 0.0677 0.1035
v  0.1988 0.2257 0.1068
v  -0.1646 0.2041 -0.1142
v  0.0171 0.2522 -0.1142
v  -0.2432 0.0189 -0.1085
v  -0.2763 -0.1681 -0.1363
v  -0.1848 -0.2803 -0.0653
v  -0.0331 -0.3226 -0.0653
v  0.1545 -0.2620 -0.0743
v  0.2527 -0.1457 -0.0743
v  0.2905 0.0729 -0.0755
v  0.1988 0.2041 -0.1142
v  -0.1201 0.1211 -0.2991
v  0.0106 0.1558 -0.2991
v  -0.1901 -0.0066 -0.3164
v  -0.2030 -0.1835 -0.3063
v  -0.1434 -0.1946 -0.2813
v  -0.0194 -0.2291 -0.3122
v  0.0959 -0.1917 -0.3122
v  0.1357 -0.0722 -0.2410
v  0.2148 0.0383 -0.2501
v  0.1460 0.1155 -0.2501
v  -0.0104 -0.0860 -0.3833
# 42 vertices

vn 0.0161 0.0423 0.9990
vn -0.0263 0.5367 0.8433
vn -0.5433 0.3323 0.7710
vn -0.6015 0.1752 0.7794
vn -0.7430 -0.2348 0.6267
vn -0.4329 -0.5506 0.7137
vn 0.0061 -0.6200 0.7846
vn 0.3282 -0.5254 0.7850
vn 0.5704 -0.0878 0.8167
vn 0.6090 0.2291 0.7594
vn 0.5254 0.3882 0.7572
vn -0.6653 0.6760 0.3167
vn 0.0226 0.9688 0.2466
vn -0.9231 0.1466 0.3555
vn -0.8931 -0.3493 0.2835
vn -0.4231 -0.8609 0.2825
vn 0.0369 -0.9479 0.3163
vn 0.4981 -0.8381 0.2223
vn 0.9115 -0.3096 0.2708
vn 0.8878 0.2978 0.3508
vn 0.6280 0.7175 0.3014
vn -0.6333 0.7335 -0.2468
vn 0.0088 0.9557 -0.2942
vn -0.9592 0.2595 -0.1122
vn -0.9398 -0.2963 -0.1701
vn -0.5888 -0.8069 -0.0477
vn 0.0077 -0.9835 -0.1806
vn 0.5602 -0.7815 -0.2745
vn 0.8201 -0.4390 -0.3672
vn 0.9489 0.2622 -0.1756
vn 0.6047 0.7350 -0.3067
vn -0.4208 0.5795 -0.6979
vn 0.1006 0.6466 -0.7562
vn -0.7003 0.2085 -0.6828
vn -0.5611 -0.5900 -0.5806
vn -0.2195 -0.8390 -0.4980
vn -0.0431 -0.7494 -0.6607
vn 0.6247 -0.4318 -0.6507
vn 0.7276 -0.3425 -0.5944
vn 0.7293 0.0952 -0.6776
vn 0.5056 0.4950 -0.7066
vn 0.1117 -0.0653 -0.9916
# 42 vertex normals

vt 0.5419 0.4262 0.9982
vt 0.5666 0.7518 0.9195
vt 0.4646 0.6907 0.8699
vt 0.3042 0.4255 0.9423
vt 0.2857 0.3546 0.9229
vt 0.3836 0.2388 0.9229
vt 0.5419 0.1945 0.9229
vt 0.7003 0.2388 0.9229
vt 0.7982 0.3546 0.9229
vt 0.7810 0.5647 0.8625
vt 0.7335 0.6907 0.8699
vt 0.6889 0.6910 0.8348
vt 0.5354 0.8699 0.6907
vt 0.4334 0.9195 0.7518
vt 0.4334 0.6910 0.9178
vt 0.5335 0.7613 0.2189
vt 0.5745 0.9423 0.3042
vt 0.3093 0.8699 0.4646
vt 0.1652 0.6910 0.3111
vt 0.6510 0.7350 0.2304
vt 0.6454 0.9229 0.2857
vt 0.9209 0.7230 0.4366
vt 0.7612 0.9229 0.3836
vt 0.5360 0.7487 0.0662
vt 0.5419 0.9229 0.1945
vt 0.3836 0.9229 0.2388
vt 0.4366 0.7230 0.0791
vt 0.7769 0.7259 0.1229
vt 0.7003 0.9229 0.2388
vt 0.3104 0.7259 0.9565
vt 0.3546 0.9229 0.7982
vt 0.2388 0.9229 0.7003
vt 0.1229 0.7259 0.7769
vt 0.6128 0.6864 0.9163
vt 0.5647 0.8625 0.7810
vt 0.8348 0.6910 0.8221
vt 0.6907 0.8699 0.7335
vt 0.2665 0.8699 0.6907
vt 0.1779 0.6910 0.8348
vt 0.6889 0.3803 0.8045
vt 0.4334 0.3803 0.8722
vt 0.4560 0.3883 0.2005
vt 0.1955 0.3803 0.3111
vt 0.7190 0.3493 0.1540
vt 0.8767 0.4490 0.2826
vt 0.4960 0.4490 0.0637
vt 0.2826 0.4490 0.1233
vt 0.7598 0.4363 0.1490
vt 0.3126 0.4363 0.8980
vt 0.1490 0.4363 0.7598
vt 0.6200 0.4347 0.9511
vt 0.8045 0.3803 0.8221
vt 0.1779 0.3803 0.8045
vt 0.6264 0.1202 0.6878
vt 0.4425 0.1202 0.7366
vt 0.4919 0.0959 0.2753
vt 0.3122 0.1202 0.3736
vt 0.7406 0.1101 0.2570
vt 0.3409 0.1453 0.2438
vt 0.1540 0.3493 0.2810
vt 0.2570 0.1101 0.2594
vt 0.5153 0.1018 0.1952
vt 0.6775 0.1018 0.2479
vt 0.4159 0.2019 0.7334
vt 0.2479 0.1018 0.6775
vt 0.5713 0.1892 0.8447
vt 0.6799 0.1892 0.7479
vt 0.2521 0.1892 0.6799
vt 0.4721 0.3965 0.0018
vt 0.6264 0.6878 0.1202
vt 0.4425 0.7366 0.1202
vt 0.7247 0.5081 0.0959
vt 0.7430 0.2594 0.1101
vt 0.5279 0.0018 0.3965
vt 0.4847 0.1952 0.1018
vt 0.6591 0.2438 0.1453
vt 0.3225 0.2479 0.1018
vt 0.2666 0.4159 0.2019
vt 0.3965 0.0018 0.5279
vt 0.2521 0.6799 0.1892
vt 0.1553 0.5713 0.1892
# 81 texture coords

g Hand
f 1/1/1 2/2/2 3/3/3 
f 1/1/1 3/3/3 4/4/4 
f 1/1/1 4/4/4 5/5/5 
f 1/1/1 5/5/5 6/6/6 
f 1/1/1 6/6/6 7/7/7 
f 1/1/1 7/7/7 8/8/8 
f 1/1/1 8/8/8 9/9/9 
f 1/1/1 9/9/9 10/10/10 
f 1/1/1 10/10/10 11/11/11 
f 1/1/1 11/11/11 2/2/2 
f 12/12/12 3/13/3 2/14/2 
f 2/14/2 13/15/13 12/12/12 
f 14/16/14 4/17/4 3/18/3 
f 3/18/3 12/19/12 14/16/14 
f 15/20/15 5/21/5 4/17/4 
f 4/17/4 14/16/14 15/20/15 
f 16/22/16 6/23/6 5/21/5 
f 5/21/5 15/20/15 16/22/16 
f 17/24/17 7/25/7 6/26/6 
f 6/26/6 16/27/16 17/24/17 
f 18/28/18 8/29/8 7/25/7 
f 7/25/7 17/24/17 18/28/18 
f 19/30/19 9/31/9 8/32/8 
f 8/32/8 18/33/18 19/30/19 
f 20/34/20 10/35/10 9/31/9 
f 9/31/9 19/30/19 20/34/20 
f 21/36/21 11/37/11 10/35/10 
f 10/35/10 20/34/20 21/36/21 
f 13/15/13 2/14/2 11/38/11 
f 11/38/11 21/39/21 13/15/13 
f 22/40/22 12/12/12 13/15/13 
f 13/15/13 23/41/23 22/40/22 
f 24/42/24 14/16/14 12/19/12 
f 12/19/12 22/43/22 24/42/24 
f 25/44/25 15/20/15 14/16/14 
f 14/16/14 24/42/24 25/44/25 
f 26/45/26 16/22/16 15/20/15 
f 15/20/15 25/44/25 26/45/26 
f 27/46/27 17/24/17 16/27/16 
f 16/27/16 26/47/26 27/46/27 
f 28/48/28 18/28/18 17/24/17 
f 17/24/17 27/46/27 28/48/28 
f 29/49/29 19/30/19 18/33/18 
f 18/33/18 28/50/28 29/49/29 
f 30/51/30 20/34/20 19/30/19 
f 19/30/19 29/49/29 30/51/30 
f 31/52/31 21/36/21 20/34/20 
f 20/34/20 30/51/30 31/52/31 
f 23/41/23 13/15/13 21/39/21 
f 21/39/21 31/53/31 23/41/23 
f 32/54/32 22/40/22 23/41/23 
f 23/41/23 33/55/33 32/54/32 
f 34/56/34 24/42/24 22/43/22 
f 22/43/22 32/57/32 34/56/34 
f 35/58/35 25/44/25 24/42/24 
f 24/42/24 34/56/34 35/58/35 
f 36/59/36 26/47/26 25/60/25 
f 25/60/25 35/61/35 36/59/36 
f 37/62/37 27/46/27 26/47/26 
f 26/47/26 36/59/36 37/62/37 
f 38/63/38 28/48/28 27/46/27 
f 27/46/27 37/62/37 38/63/38 
f 39/64/39 29/49/29 28/50/28 
f 28/50/28 38/65/38 39/64/39 
f 40/66/40 30/51/30 29/49/29 
f 29/49/29 39/64/39 40/66/40 
f 41/67/41 31/52/31 30/51/30 
f 30/51/30 40/66/40 41/67/41 
f 33/55/33 23/41/23 31/53/31 
f 31/53/31 41/68/41 33/55/33 
f 42/69/42 32/70/32 33/71/33 
f 42/69/42 34/72/34 32/70/32 
f 42/69/42 35/73/35 34/72/34 
f 42/74/42 36/59/36 35/61/35 
f 42/69/42 37/75/37 36/76/36 
f 42/69/42 38/77/38 37/75/37 
f 42/69/42 39/78/39 38/77/38 
f 42/79/42 40/66/40 39/64/39 
f 42/69/42 41/80/41 40/81/40 
f 42/69/42 33/71/33 41/80/41 
# 80 faces

