# 3ds Max Wavefront OBJ Exporter v0.97b - (c)2007 guruware
# File Created: 03.03.2016 17:27:43

#
# object default
#

v  5.0000 0.0000 -5.0000
v  5.0000 0.0000 5.0000
v  -5.0000 0.0000 5.0000
v  -5.0000 0.0000 -5.0000
v  5.0000 10.0000 -5.0000
v  -5.0000 10.0000 -5.0000
v  -5.0000 10.0000 5.0000
v  5.0000 10.0000 5.0000
# 8 vertices

vn 0.5774 -0.5774 -0.5774
vn 0.5774 -0.5774 0.5774
vn -0.5774 -0.5774 0.5774
vn -0.5774 -0.5774 -0.5774
vn 0.5774 0.5774 -0.5774
vn -0.5774 0.5774 -0.5774
vn -0.5774 0.5774 0.5774
vn 0.5774 0.5774 0.5774
# 8 vertex normals

vt 1.0000 1.0000 0.0000
vt 1.0000 0.0000 0.0000
vt 0.0000 0.0000 0.0000
vt 0.0000 1.0000 0.0000
vt 1.0000 1.0000 1.0000
vt 0.0000 1.0000 1.0000
vt 0.0000 0.0000 1.0000
vt 1.0000 0.0000 1.0000
# 8 texture coords

g default
f 1/1/1 2/2/2 3/3/3 
f 3/3/3 4/4/4 1/1/1 
f 5/5/5 6/6/6 7/7/7 
f 7/7/7 8/8/8 5/5/5 
f 8/8/8 7/7/7 3/3/3 
f 3/3/3 2/2/2 8/8/8 
f 5/5/5 8/8/8 2/2/2 
f 2/2/2 1/1/1 5/5/5 
f 6/6/6 5/5/5 1/1/1 
f 1/1/1 4/4/4 6/6/6 
f 7/7/7 6/6/6 4/4/4 
f 4/4/4 3/3/3 7/7/7 
# 12 faces

